{"title":"Alice In Chains - Dirt [EAC+FLAC]","uid":4164862,"size":417587909,"categoryP":"audio","categoryS":"flac","magnet":"?xt=urn:btih:da24b5a97de1f1514f2980d5f138271aac5a82aa&amp;dn=Alice+In+Chains+-+Dirt+%5BEAC%2BFLAC%5D&amp;tr=udp%3A%2F%2Ftracker.openbittorrent.com%3A80&amp;tr=udp%3A%2F%2Fopen.demonii.com%3A1337&amp;tr=udp%3A%2F%2Ftracker.coppersurfer.tk%3A6969&amp;tr=udp%3A%2F%2Fexodus.desync.com%3A6969","seeders":0,"leechers":0,"uploader":"embeejay","files":16,"time":1209561170,"description":"Exact Audio Copy V0.99 prebeta 4 from 23. January 2008\n\nEAC extraction logfile from 30. April 2008, 12:43\n\nAlice In Chains / Dirt\n\nUsed drive  : PIONEER DVD-RW  DVR-115D   Adapter: 0  ID: 0\n\nRead mode               : Secure\nUtilize accurate stream : Yes\nDefeat audio cache      : Yes\nMake use of C2 pointers : No\n\nCombined read/write offset correction       : 0\nOverread into Lead-In and Lead-Out          : Yes\nFill up missing offset samples with silence : Yes\nDelete leading and trailing silent blocks   : No\nNull samples used in CRC calculations       : No\nUsed interface                              : Native Win32 interface for Win NT &amp; 2000\nGap handling                                : Not detected, thus appended to previous track\n\nUsed output format              : User Defined Encoder\nSelected bitrate                : 1024 kBit/s\nQuality                         : High\nAdd ID3 tag                     : No\nCommand line compressor         : C:Program FilesFLACflac.exe\nAdditional command line options : -8 -V -T &quot;artist=%a&quot; -T &quot;title=%t&quot; -T &quot;album=%g&quot; -T &quot;date=%y&quot; -T &quot;tracknumber=%n&quot; -T &quot;genre=%m&quot; %s\n\n\nTOC of the extracted CD\n\n     Track |   Start  |  Length  | Start sector | End sector \n    ---------------------------------------------------------\n        1  |  0:00.00 |  2:30.02 |         0    |    11251   \n        2  |  2:30.02 |  3:09.28 |     11252    |    25454   \n        3  |  5:39.30 |  6:01.52 |     25455    |    52581   \n        4  | 11:41.07 |  5:29.28 |     52582    |    77284   \n        5  | 17:10.35 |  6:14.70 |     77285    |   105404   \n        6  | 23:25.30 |  5:09.17 |    105405    |   128596   \n        7  | 28:34.47 |  5:16.40 |    128597    |   152336   \n        8  | 33:51.12 |  3:50.58 |    152337    |   169644   \n        9  | 37:41.70 |  0:43.37 |    169645    |   172906   \n       10  | 38:25.32 |  5:16.13 |    172907    |   196619   \n       11  | 43:41.45 |  4:47.60 |    196620    |   218204   \n       12  | 48:29.30 |  5:38.05 |    218205    |   243559   \n       13  | 54:07.35 |  3:27.55 |    243560    |   259139   \n\n\nTrack  1\n\n     Filename C:Alice In Chains - Dirt 01 - Them Bones.wav\n\n     Peak level 99.8 %\n     Track quality 100.0 %\n     Copy CRC D08CB03B\n     Copy OK\n\nTrack  2\n\n     Filename C:Alice In Chains - Dirt 02 - Dam That River.wav\n\n     Peak level 99.8 %\n     Track quality 100.0 %\n     Copy CRC 092B2B9D\n     Copy OK\n\nTrack  3\n\n     Filename C:Alice In Chains - Dirt 03 - Rain When I Die.wav\n\n     Peak level 99.8 %\n     Track quality 100.0 %\n     Copy CRC 49363467\n     Copy OK\n\nTrack  4\n\n     Filename C:Alice In Chains - Dirt 04 - Sickman.wav\n\n     Peak level 99.8 %\n     Track quality 100.0 %\n     Copy CRC C2562AD0\n     Copy OK\n\nTrack  5\n\n     Filename C:Alice In Chains - Dirt 05 - Rooster.wav\n\n     Peak level 99.8 %\n     Track quality 99.9 %\n     Copy CRC 9F413A48\n     Copy OK\n\nTrack  6\n\n     Filename C:Alice In Chains - Dirt 06 - Junkhead.wav\n\n     Peak level 99.8 %\n     Track quality 100.0 %\n     Copy CRC 86CF265E\n     Copy OK\n\nTrack  7\n\n     Filename C:Alice In Chains - Dirt 07 - Dirt.wav\n\n     Peak level 99.8 %\n     Track quality 100.0 %\n     Copy CRC 29C9A0E8\n     Copy OK\n\nTrack  8\n\n     Filename C:Alice In Chains - Dirt 08 - God Smack.wav\n\n     Peak level 99.8 %\n     Track quality 99.9 %\n     Copy CRC 0A7F9D80\n     Copy OK\n\nTrack  9\n\n     Filename C:Alice In Chains - Dirt 09 - Iron Gland.wav\n\n     Peak level 99.8 %\n     Track quality 99.7 %\n     Copy CRC 53B2342E\n     Copy OK\n\nTrack 10\n\n     Filename C:Alice In Chains - Dirt 10 - Hate To Feel.wav\n\n     Peak level 99.8 %\n     Track quality 100.0 %\n     Copy CRC 310C16A7\n     Copy OK\n\nTrack 11\n\n     Filename C:Alice In Chains - Dirt 11 - Angry Chair.wav\n\n     Peak level 99.8 %\n     Track quality 100.0 %\n     Copy CRC 19096C6A\n     Copy OK\n\nTrack 12\n\n     Filename C:Alice In Chains - Dirt 12 - Down In A Hole.wav\n\n     Peak level 99.8 %\n     Track quality 99.9 %\n     Copy CRC 61421D7D\n     Copy OK\n\nTrack 13\n\n     Filename C:Alice In Chains - Dirt 13 - Would .wav\n\n     Peak level 99.8 %\n     Track quality 100.0 %\n     Copy CRC E3729AF0\n     Copy OK\n\nNo errors occurred\n\nEnd of status report\n","torrent":{"xt":"urn:btih:da24b5a97de1f1514f2980d5f138271aac5a82aa","amp;dn":"Alice+In+Chains+-+Dirt+%5BEAC%2BFLAC%5D","amp;tr":["udp%3A%2F%2Ftracker.openbittorrent.com%3A80","udp%3A%2F%2Fopen.demonii.com%3A1337","udp%3A%2F%2Ftracker.coppersurfer.tk%3A6969","udp%3A%2F%2Fexodus.desync.com%3A6969"],"infoHash":"da24b5a97de1f1514f2980d5f138271aac5a82aa","infoHashBuffer":{"type":"Buffer","data":[218,36,181,169,125,225,241,81,79,41,128,213,241,56,39,26,172,90,130,170]},"announce":[],"urlList":[]}}